<svg fill="#eb0505" version="1.1" baseProfile="tiny" id="Layer_1" xmlns:x="&amp;ns_extend;" xmlns:i="&amp;ns_ai;" xmlns:graph="&amp;ns_graphs;" xmlns="http://www.w3.org/2000/svg" xmlns:xlink="http://www.w3.org/1999/xlink" xmlns:a="http://ns.adobe.com/AdobeSVGViewerExtensions/3.0/" width="25px" height="25px" viewBox="-0.5 0.5 42 42" xml:space="preserve" stroke="#eb0505"><g id="SVGRepo_bgCarrier" stroke-width="0"></g><g id="SVGRepo_tracerCarrier" stroke-linecap="round" stroke-linejoin="round"></g><g id="SVGRepo_iconCarrier"> <path d="M12.5,16.5v17h3v-17H12.5z M18.5,16.5v17h3v-17H18.5z M24.5,16.5v17h3v-17H24.5z M27.5,4.5c0-2.5-0.609-3-3-3h-10 c-2.52,0-2.98,0.55-2.98,3.01L11.5,7.5h-8c-1.48,0-2,0.49-2,2v1c0,1.55,0.52,2,2,2h1v26c0,2.49,0.55,3,3,3h24c2.5,0,4-0.471,4-3v-26 h1c1.51,0,2-0.48,2-2v-1c0-1.48-0.43-2-2-2h-9V4.5z M24.5,4.5v3h-10v-3H24.5z M9.5,12.5h21v24h-21V12.5z"></path> </g></svg>
